# xmcd
#
# Track frame offsets:
#	150
#	15822
#	31851
#	37571
#	52363
#	65612
#	82000
#	99778
#	118343
#	126998
#	143875
#	160184
#	172899
#	191042
#	209784
#
# Disc length: 3027 seconds
#
# Revision: 2
# Processed by: cddbd v1.5.2PL0 Copyright (c) Steve Scherf et al.
# Submitted via: audiograbber 1.83.01
#
DISCID=cc0bd10f
DTITLE=John Williamson - Mates On The Road [Disc 1]
DYEAR=2004
DGENRE=Country
TTITLE0=Mallee Boy (Live)
TTITLE1=Dear Little Quambatook (Live)
TTITLE2=Chook Routine (Live)
TTITLE3=It Goes Without Saying (Live)
TTITLE4=Cracker Night (Live)
TTITLE5=Forty Years Ago (Live)
TTITLE6=Salisbury Street (Live)
TTITLE7=Hawkesbury River Lovin' (Live)
TTITLE8=The Flight of the Blowfly (featuring Pixie Jenkins) (Live)
TTITLE9=Boomerang Cafe (Live)
TTITLE10=Buried In Her Bedclothes (Live)
TTITLE11=You And My Guitar (Live)
TTITLE12=Galleries Of Pink Galahs (Live)
TTITLE13=Cootamundra Wattle (Live)
TTITLE14=Old Man Emu (Live)
EXTD=
EXTT0=
EXTT1=
EXTT2=
EXTT3=
EXTT4=
EXTT5=
EXTT6=
EXTT7=
EXTT8=
EXTT9=
EXTT10=
EXTT11=
EXTT12=
EXTT13=
EXTT14=
PLAYORDER=
